<?xml version="1.0" standalone="no"?>
<!DOCTYPE svg PUBLIC "-//W3C//DTD SVG 20010904//EN"
 "http://www.w3.org/TR/2001/REC-SVG-20010904/DTD/svg10.dtd">
<svg version="1.0" xmlns="http://www.w3.org/2000/svg"
 width="1180.000000pt" height="1180.000000pt" viewBox="0 0 1180.000000 1180.000000"
 preserveAspectRatio="xMidYMid meet">

<g transform="translate(0.000000,1180.000000) scale(0.100000,-0.100000)"
fill="#000000" stroke="none">
<path d="M4460 8605 l0 -1095 235 0 235 0 0 440 0 440 120 0 120 0 0 195 0
195 -120 0 -120 0 0 460 0 460 -235 0 -235 0 0 -1095z"/>
<path d="M6930 9240 l0 -460 -168 -2 -168 -3 120 -192 121 -192 48 -1 47 0 0
-440 0 -440 230 0 230 0 0 1095 0 1095 -230 0 -230 0 0 -460z"/>
<path d="M4068 9108 l-3 -323 -182 -3 -183 -2 0 -195 0 -195 185 0 185 0 0
-310 0 -311 148 3 147 3 3 828 2 827 -150 0 -150 0 -2 -322z"/>
<path d="M7490 8600 l0 -830 150 0 150 0 0 310 0 310 180 0 180 0 0 195 0 195
-180 0 -180 0 0 325 0 325 -150 0 -150 0 0 -830z"/>
<path d="M5659 9089 c-68 -40 -69 -45 -69 -357 0 -273 0 -280 23 -313 45 -68
124 -84 189 -37 56 39 58 53 58 345 0 300 -3 316 -69 360 -42 28 -85 29 -132
2z"/>
<path d="M6025 9043 c-39 -10 -74 -44 -90 -86 -14 -37 -16 -79 -13 -280 3
-220 4 -237 24 -264 64 -87 188 -78 236 18 16 29 18 65 18 267 0 255 -5 283
-57 320 -31 22 -86 34 -118 25z"/>
<path d="M5321 8902 c-63 -34 -71 -64 -71 -267 0 -201 7 -225 72 -265 40 -24
79 -25 125 -3 67 31 73 54 73 268 0 173 -2 193 -20 223 -36 58 -116 78 -179
44z"/>
<path d="M6325 8792 c-54 -34 -70 -60 -70 -111 0 -42 9 -61 77 -167 42 -65 75
-120 74 -121 -1 -2 -54 -16 -117 -32 -364 -92 -531 -222 -609 -476 -21 -70
-30 -209 -15 -254 6 -19 2 -21 -33 -21 -38 0 -40 2 -46 38 -18 112 6 257 64
377 33 70 71 127 153 232 l19 23 -287 0 -287 0 4 -232 c4 -216 6 -237 27 -292
26 -64 74 -124 127 -157 l34 -21 0 -739 0 -739 490 0 c333 0 490 3 490 10 0 6
-43 329 -95 717 -52 388 -95 715 -94 727 0 14 57 71 178 177 l177 156 74 189
c44 113 75 209 78 240 4 51 4 51 -122 245 -69 107 -136 205 -150 218 -34 32
-101 38 -141 13z"/>
<path d="M3731 5081 c-21 -19 -25 -34 -34 -134 -9 -112 -1 -696 12 -812 5 -48
10 -61 25 -63 40 -8 46 21 46 224 0 211 3 223 58 224 101 2 302 20 325 29 19
7 27 18 27 35 0 43 -27 49 -219 45 l-176 -4 0 170 c0 94 4 176 9 183 6 9 61
12 217 12 227 0 303 10 320 42 8 15 8 23 0 31 -7 7 -106 14 -279 18 -147 4
-276 10 -287 14 -14 4 -29 -1 -44 -14z"/>
<path d="M3165 5056 c-24 -36 -27 -124 -17 -553 7 -289 13 -397 22 -408 19
-23 57 -19 66 8 4 12 8 200 9 417 2 217 3 422 3 455 1 94 -45 139 -83 81z"/>
<path d="M9180 5071 c-75 -10 -87 -17 -101 -59 -15 -44 -16 -48 -16 -332 0
-124 -1 -261 -2 -306 -2 -93 14 -241 29 -259 27 -32 504 -24 539 10 47 46 -49
65 -295 58 l-181 -6 5 169 c3 109 9 172 16 176 6 4 63 8 127 8 141 0 181 11
177 49 l-3 26 -155 0 -155 0 -5 59 c-7 78 -4 302 5 315 4 7 76 11 203 12 233
0 276 6 280 35 6 43 -18 49 -222 50 -105 1 -216 -1 -246 -5z"/>
<path d="M2175 5040 c-14 -26 -16 -82 -17 -379 0 -366 13 -568 39 -578 7 -3
39 4 71 16 51 19 76 21 229 19 188 -1 203 3 203 52 l0 28 -102 6 c-57 4 -156
4 -220 1 l-118 -6 -2 103 c-1 57 0 229 1 383 2 154 0 304 -4 333 -6 49 -9 52
-36 52 -22 0 -32 -7 -44 -30z"/>
<path d="M8621 5052 c-27 -24 -41 -120 -41 -284 l0 -135 -92 -7 c-50 -3 -173
-6 -274 -6 l-182 0 -7 107 c-4 59 -5 147 -1 195 7 104 -3 138 -39 138 -18 0
-28 -7 -35 -26 -13 -33 -13 -411 0 -684 12 -239 14 -260 34 -260 32 0 37 29
43 234 6 197 7 205 27 210 30 7 504 12 510 5 3 -3 8 -55 11 -115 7 -156 22
-295 34 -307 20 -20 38 2 44 55 4 29 7 179 7 333 0 154 5 325 11 380 18 149
-1 209 -50 167z"/>
<path d="M5110 5050 c-396 -11 -451 -20 -435 -70 l7 -23 192 6 c105 4 197 3
205 -2 12 -7 13 -61 8 -327 -4 -176 -3 -368 1 -429 l7 -110 30 0 30 0 7 75 c4
41 6 232 5 423 -2 256 0 353 9 365 9 13 37 16 150 19 227 6 278 20 219 59 -33
22 -98 24 -435 14z"/>
<path d="M7100 5050 c-396 -11 -456 -21 -429 -72 11 -21 16 -21 198 -15 102 4
192 3 198 -1 10 -6 12 -102 12 -407 0 -220 3 -413 8 -430 12 -40 57 -48 69
-13 4 13 7 205 6 428 -1 231 3 411 8 420 7 11 34 15 117 17 59 1 145 5 191 8
77 6 83 8 80 28 -2 13 -16 25 -38 33 -38 14 -44 14 -420 4z"/>
<path d="M3878 3543 c-12 -3 -24 -25 -34 -60 -9 -31 -27 -77 -40 -101 -13 -25
-24 -52 -24 -62 0 -9 -27 -88 -60 -176 -107 -282 -128 -337 -165 -439 -20 -55
-50 -142 -66 -192 -17 -54 -35 -93 -43 -93 -7 0 -19 19 -25 43 -7 23 -17 47
-21 52 -4 6 -13 35 -20 65 -7 30 -32 102 -55 160 -23 58 -50 139 -60 180 -10
41 -28 102 -41 134 -13 33 -24 70 -24 82 0 13 -4 25 -8 28 -5 3 -17 41 -27 84
-18 82 -68 188 -96 205 -10 7 -25 5 -45 -4 -58 -28 -124 -191 -225 -554 -11
-38 -31 -104 -46 -145 -14 -41 -42 -123 -62 -182 -20 -60 -40 -108 -46 -108
-11 1 -45 68 -45 90 0 7 -11 38 -24 69 -49 112 -96 236 -96 251 0 8 -11 42
-24 75 -41 100 -164 438 -171 470 -9 41 -43 75 -75 75 -20 0 -29 -8 -42 -36
-16 -35 -16 -39 4 -88 11 -28 34 -91 50 -141 16 -49 33 -94 38 -100 4 -5 35
-86 68 -180 33 -93 76 -213 96 -265 19 -52 41 -115 49 -140 38 -116 119 -292
151 -327 11 -13 25 -23 32 -23 14 0 54 64 54 87 0 8 20 70 45 137 48 133 102
294 141 426 14 47 39 119 55 160 16 41 29 84 29 95 1 11 7 29 15 39 8 11 15
31 16 45 0 14 6 42 14 61 l13 35 15 -35 c9 -19 28 -87 43 -150 14 -63 39 -156
55 -205 16 -50 29 -99 29 -110 0 -11 9 -37 20 -58 11 -20 20 -47 20 -59 0 -34
84 -270 127 -356 44 -89 80 -121 120 -106 22 8 36 33 95 179 84 204 156 409
171 487 7 31 18 63 25 70 6 6 12 19 12 27 0 9 11 40 25 69 14 30 25 63 25 73
0 11 9 37 19 57 11 21 22 54 26 75 4 20 13 41 21 48 8 6 12 15 9 19 -3 5 1 24
9 42 18 43 46 140 46 161 0 14 -37 49 -50 46 -3 -1 -13 -3 -22 -6z"/>
<path d="M4862 3521 c-28 -5 -86 -25 -128 -45 -42 -20 -82 -36 -88 -36 -15 0
-196 -183 -196 -198 0 -6 -12 -25 -26 -42 -31 -37 -67 -173 -85 -327 -12 -100
-12 -103 16 -188 69 -212 165 -351 290 -420 105 -57 157 -70 285 -69 130 0
187 16 281 76 68 44 179 139 179 154 0 6 8 18 17 25 14 12 42 68 93 184 19 44
24 97 24 275 0 212 -7 244 -88 375 -72 115 -161 186 -276 220 -65 19 -223 27
-298 16z m215 -111 c71 -17 153 -51 153 -64 0 -7 25 -36 55 -64 60 -55 112
-150 135 -251 31 -130 -18 -355 -107 -489 -23 -36 -43 -72 -43 -79 0 -17 -69
-67 -144 -105 -52 -26 -70 -30 -155 -31 -85 -2 -102 1 -153 25 -103 48 -145
84 -208 178 -33 49 -60 93 -60 98 0 4 -9 25 -19 46 -18 34 -26 81 -36 201 -4
50 26 201 56 280 22 60 33 73 127 153 104 87 273 131 399 102z"/>
<path d="M8806 3500 c-22 -4 -45 -15 -52 -25 -23 -31 -29 -164 -29 -595 1
-417 13 -635 38 -667 20 -27 378 -6 432 25 11 6 59 29 106 51 68 32 103 57
167 118 44 43 97 104 116 136 39 66 66 168 66 250 0 79 -28 204 -60 267 -15
30 -31 66 -35 80 -7 22 -70 110 -108 150 -113 117 -189 163 -331 200 -82 21
-230 26 -310 10z m262 -121 c95 -25 159 -58 222 -114 28 -25 54 -45 59 -45 4
0 13 -11 19 -25 7 -14 22 -30 35 -36 13 -6 34 -30 47 -55 14 -24 28 -44 31
-44 12 0 35 -72 54 -162 15 -75 16 -98 6 -160 -25 -155 -126 -289 -266 -354
-104 -48 -238 -85 -330 -91 l-80 -5 -1 58 c-1 33 -7 138 -13 235 -6 96 -9 211
-6 255 3 43 10 191 16 327 l12 249 61 -7 c34 -3 94 -15 134 -26z"/>
<path d="M7523 3478 c-26 -32 -32 -99 -34 -373 -3 -448 0 -652 12 -745 7 -47
11 -100 11 -119 -2 -73 28 -86 115 -52 41 16 85 19 293 23 135 3 252 9 262 12
19 9 42 60 35 79 -9 24 -197 39 -407 32 l-190 -7 0 174 c-1 95 0 238 2 318 5
249 2 614 -5 643 -7 24 -12 27 -46 27 -21 0 -43 -6 -48 -12z"/>
<path d="M6200 3450 c-63 -10 -116 -19 -117 -19 -2 -1 -10 -12 -18 -25 -14
-21 -16 -82 -15 -498 1 -266 7 -534 13 -613 l12 -140 35 0 c56 0 61 20 71 319
4 143 8 263 9 264 1 13 284 -165 350 -220 169 -142 297 -234 363 -262 34 -14
38 -13 59 4 l23 19 -45 47 c-25 25 -97 85 -160 132 -63 46 -131 99 -150 117
-19 18 -56 46 -82 62 -57 34 -167 116 -167 124 -1 3 39 9 89 12 157 12 231 36
328 109 78 58 112 117 112 193 0 42 -6 71 -20 95 -11 19 -27 50 -36 68 -43 86
-164 165 -307 202 -113 28 -215 31 -347 10z m271 -99 c179 -45 246 -85 310
-184 52 -81 52 -113 -2 -172 -75 -82 -201 -118 -455 -132 -85 -4 -113 -3 -119
7 -9 14 -8 461 1 484 5 14 34 20 119 24 17 1 82 -11 146 -27z"/>
</g>
</svg>
